<?xml version="1.0" encoding="UTF-8" standalone="no"?>
<!DOCTYPE svg PUBLIC "-//W3C//DTD SVG 1.1//EN"
 "http://www.w3.org/Graphics/SVG/1.1/DTD/svg11.dtd">
<!-- Generated by graphviz version 2.44.0 (20200408.0750)
 -->
<!-- Pages: 1 -->
<svg width="523pt" height="584pt"
 viewBox="0.00 0.00 523.20 584.00" xmlns="http://www.w3.org/2000/svg" xmlns:xlink="http://www.w3.org/1999/xlink">
<g id="graph0" class="graph" transform="scale(1 1) rotate(0) translate(4 580)">
<polygon fill="white" stroke="transparent" points="-4,4 -4,-580 519.2,-580 519.2,4 -4,4"/>
<!-- a -->
<g id="node1" class="node">
<title>a</title>
<ellipse fill="none" stroke="black" cx="95" cy="-234" rx="27" ry="18"/>
<text text-anchor="middle" x="95" y="-230.3" font-family="Times,serif" font-size="14.00">a</text>
</g>
<!-- b -->
<g id="node2" class="node">
<title>b</title>
<ellipse fill="none" stroke="black" cx="27" cy="-126" rx="27" ry="18"/>
<text text-anchor="middle" x="27" y="-122.3" font-family="Times,serif" font-size="14.00">b</text>
</g>
<!-- a&#45;&gt;b -->
<g id="edge1" class="edge">
<title>a&#45;&gt;b</title>
<path fill="none" stroke="black" d="M84.67,-216.9C73.52,-199.52 55.64,-171.64 42.74,-151.53"/>
<polygon fill="black" stroke="black" points="45.55,-149.43 37.2,-142.9 39.66,-153.21 45.55,-149.43"/>
</g>
<!-- c -->
<g id="node3" class="node">
<title>c</title>
<ellipse fill="none" stroke="black" cx="95" cy="-18" rx="27" ry="18"/>
<text text-anchor="middle" x="95" y="-14.3" font-family="Times,serif" font-size="14.00">c</text>
</g>
<!-- b&#45;&gt;c -->
<g id="edge2" class="edge">
<title>b&#45;&gt;c</title>
<path fill="none" stroke="black" d="M37.33,-108.9C48.48,-91.52 66.36,-63.64 79.26,-43.53"/>
<polygon fill="black" stroke="black" points="82.34,-45.21 84.8,-34.9 76.45,-41.43 82.34,-45.21"/>
</g>
<!-- c&#45;&gt;a -->
<g id="edge3" class="edge">
<title>c&#45;&gt;a</title>
<path fill="none" stroke="black" d="M95,-36.23C95,-73.32 95,-160.98 95,-205.71"/>
<polygon fill="black" stroke="black" points="91.5,-205.85 95,-215.85 98.5,-205.85 91.5,-205.85"/>
</g>
<!-- d -->
<g id="node4" class="node">
<title>d</title>
<ellipse fill="none" stroke="black" cx="94" cy="-558" rx="27" ry="18"/>
<text text-anchor="middle" x="94" y="-554.3" font-family="Times,serif" font-size="14.00">d</text>
</g>
<!-- e -->
<g id="node5" class="node">
<title>e</title>
<ellipse fill="none" stroke="black" cx="94" cy="-450" rx="27" ry="18"/>
<text text-anchor="middle" x="94" y="-446.3" font-family="Times,serif" font-size="14.00">e</text>
</g>
<!-- d&#45;&gt;e -->
<g id="edge4" class="edge">
<title>d&#45;&gt;e</title>
<path fill="none" stroke="black" d="M94,-539.97C94,-523.38 94,-497.88 94,-478.43"/>
<polygon fill="black" stroke="black" points="97.5,-478.34 94,-468.34 90.5,-478.34 97.5,-478.34"/>
</g>
<!-- f -->
<g id="node6" class="node">
<title>f</title>
<ellipse fill="none" stroke="black" cx="94" cy="-342" rx="27" ry="18"/>
<text text-anchor="middle" x="94" y="-338.3" font-family="Times,serif" font-size="14.00">f</text>
</g>
<!-- e&#45;&gt;f -->
<g id="edge5" class="edge">
<title>e&#45;&gt;f</title>
<path fill="none" stroke="black" d="M94,-431.97C94,-415.38 94,-389.88 94,-370.43"/>
<polygon fill="black" stroke="black" points="97.5,-370.34 94,-360.34 90.5,-370.34 97.5,-370.34"/>
</g>
<!-- f&#45;&gt;a -->
<g id="edge6" class="edge">
<title>f&#45;&gt;a</title>
<path fill="none" stroke="black" d="M94.16,-323.97C94.32,-307.38 94.56,-281.88 94.74,-262.43"/>
<polygon fill="black" stroke="black" points="98.24,-262.37 94.84,-252.34 91.24,-262.31 98.24,-262.37"/>
</g>
<!-- hello -->
<g id="node7" class="node">
<title>hello</title>
<ellipse fill="none" stroke="black" cx="484" cy="-558" rx="28.7" ry="18"/>
<text text-anchor="middle" x="484" y="-554.3" font-family="Times,serif" font-size="14.00">hello</text>
</g>
<!-- world -->
<g id="node8" class="node">
<title>world</title>
<ellipse fill="none" stroke="black" cx="484" cy="-450" rx="31.4" ry="18"/>
<text text-anchor="middle" x="484" y="-446.3" font-family="Times,serif" font-size="14.00">world</text>
</g>
<!-- hello&#45;&gt;world -->
<g id="edge7" class="edge">
<title>hello&#45;&gt;world</title>
<path fill="none" stroke="black" d="M484,-539.97C484,-523.38 484,-497.88 484,-478.43"/>
<polygon fill="black" stroke="black" points="487.5,-478.34 484,-468.34 480.5,-478.34 487.5,-478.34"/>
</g>
<!-- aaaaa -->
<g id="node9" class="node">
<title>aaaaa</title>
<ellipse fill="none" stroke="black" cx="224" cy="-450" rx="30.59" ry="18"/>
<text text-anchor="middle" x="224" y="-446.3" font-family="Times,serif" font-size="14.00">aaaaa</text>
</g>
<!-- bbb -->
<g id="node10" class="node">
<title>bbb</title>
<ellipse fill="none" stroke="black" cx="224" cy="-342" rx="27" ry="18"/>
<text text-anchor="middle" x="224" y="-338.3" font-family="Times,serif" font-size="14.00">bbb</text>
</g>
<!-- aaaaa&#45;&gt;bbb -->
<g id="edge8" class="edge">
<title>aaaaa&#45;&gt;bbb</title>
<path fill="none" stroke="black" d="M224,-431.97C224,-415.38 224,-389.88 224,-370.43"/>
<polygon fill="black" stroke="black" points="227.5,-370.34 224,-360.34 220.5,-370.34 227.5,-370.34"/>
</g>
<!-- bbb&#45;&gt;a -->
<g id="edge9" class="edge">
<title>bbb&#45;&gt;a</title>
<path fill="none" stroke="black" d="M207.66,-327.58C185.39,-309.28 145.33,-276.36 119.47,-255.11"/>
<polygon fill="black" stroke="black" points="121.56,-252.3 111.61,-248.65 117.12,-257.7 121.56,-252.3"/>
</g>
<!-- apple -->
<g id="node11" class="node">
<title>apple</title>
<ellipse fill="none" stroke="black" cx="224" cy="-234" rx="29.8" ry="18"/>
<text text-anchor="middle" x="224" y="-230.3" font-family="Times,serif" font-size="14.00">apple</text>
</g>
<!-- bbb&#45;&gt;apple -->
<g id="edge10" class="edge">
<title>bbb&#45;&gt;apple</title>
<path fill="none" stroke="black" d="M224,-323.97C224,-307.38 224,-281.88 224,-262.43"/>
<polygon fill="black" stroke="black" points="227.5,-262.34 224,-252.34 220.5,-262.34 227.5,-262.34"/>
</g>
<!-- temp -->
<g id="node12" class="node">
<title>temp</title>
<ellipse fill="none" stroke="black" cx="354" cy="-234" rx="28.7" ry="18"/>
<text text-anchor="middle" x="354" y="-230.3" font-family="Times,serif" font-size="14.00">temp</text>
</g>
<!-- bbb&#45;&gt;temp -->
<g id="edge11" class="edge">
<title>bbb&#45;&gt;temp</title>
<path fill="none" stroke="black" d="M240.46,-327.58C262.91,-309.28 303.28,-276.36 329.34,-255.11"/>
<polygon fill="black" stroke="black" points="331.72,-257.68 337.26,-248.65 327.3,-252.26 331.72,-257.68"/>
</g>
<!-- abc -->
<g id="node13" class="node">
<title>abc</title>
<ellipse fill="none" stroke="black" cx="354" cy="-450" rx="27" ry="18"/>
<text text-anchor="middle" x="354" y="-446.3" font-family="Times,serif" font-size="14.00">abc</text>
</g>
<!-- abc&#45;&gt;bbb -->
<g id="edge12" class="edge">
<title>abc&#45;&gt;bbb</title>
<path fill="none" stroke="black" d="M337.54,-435.58C315.09,-417.28 274.72,-384.36 248.66,-363.11"/>
<polygon fill="black" stroke="black" points="250.7,-360.26 240.74,-356.65 246.28,-365.68 250.7,-360.26"/>
</g>
</g>
</svg>
